<?xml version="1.0" standalone="no"?>
<!DOCTYPE svg PUBLIC "-//W3C//DTD SVG 20010904//EN"
 "http://www.w3.org/TR/2001/REC-SVG-20010904/DTD/svg10.dtd">
<svg version="1.0" xmlns="http://www.w3.org/2000/svg" fill="currentColor" color="white"
 width="200.000000pt" height="200.000000pt" viewBox="0 0 200.000000 200.000000"
 preserveAspectRatio="xMidYMid meet">

<g transform="translate(0.000000,200.000000) scale(0.100000,-0.100000)"
fill="#000000" stroke="none">
<path d="M855 1444 c-346 -38 -627 -186 -721 -379 -27 -56 -29 -68 -29 -175 0
-175 27 -261 96 -312 48 -36 93 -34 234 12 223 72 247 100 244 285 -1 62 1
118 5 123 21 35 439 50 571 20 l60 -13 5 -130 c8 -196 23 -213 245 -285 141
-46 186 -48 234 -12 69 51 95 136 96 312 0 105 -2 120 -28 174 -18 39 -51 83
-100 130 -112 111 -281 189 -498 231 -82 16 -335 27 -414 19z m302 -105 c302
-33 534 -153 614 -315 31 -63 32 -67 26 -162 -10 -163 -38 -220 -101 -208 -62
12 -251 85 -263 103 -9 11 -13 58 -13 145 0 186 -8 194 -216 224 -137 19 -359
14 -481 -10 -137 -28 -146 -41 -144 -214 1 -91 -2 -132 -11 -145 -13 -17 -201
-91 -264 -103 -62 -12 -91 45 -101 202 -8 129 10 178 96 265 168 168 515 257
858 218z"/>
</g>
</svg>
